<svg id="Layer_1" xmlns="http://www.w3.org/2000/svg" xml:space="preserve" viewBox="0 0 96 96" version="1.1" y="0px" x="0px" xmlns:xlink="http://www.w3.org/1999/xlink" enable-background="new 0 0 96 96">
<path id="XMLID_450_" d="m72.7 23.4v30.2c0 1.1 0.1 3.2 0.4 4.7 0.3 2 1.1 3.1 3.2 3.5 1.6 0.2 3.6-0.1 4.6-1.3 2.8-3.2 2.7-16.4 2.7-21.1 0-7.9-0.2-16.4-2.6-20.8-3.6-6.4-12.9-6.5-20.2-6.7-8.9-0.3-30.3-0.8-38.2 2.4-8.2 3.3-9.1 11.3-9.7 19.7-0.4 6.7-0.3 16.7-0.2 23.1 0.5 16.3 2.2 24.7 20 26.5 6.9 0.7 22.9 0.6 29.9 0.2 3.9-0.2 7.6-0.6 10.5-3.2 1.4-1.2 2.3-2.3 4.3-1.4l6 2.8c1.7 0.8 2.3 2.8 1.3 4.4-5.7 8.6-18.1 9-28.3 9.3-12 0.4-32.3 1.1-42.5-5.1-10.6-6.4-12.2-19.3-13-31-0.9-14-1.2-34.8 5.2-45.8 6.1-10.6 18-12.6 29.6-13.4 11.4-0.8 34.8-1 45 3 10.9 4.3 13.4 13.1 14.5 24.1 0.8 9 0.8 26-1.7 34.3-2.8 9.4-8.8 11.9-18.4 11.9-6.1 0-12.4-0.9-15-6.7-3.8 5.7-9.9 6.9-16.7 6.9-18.2 0-20.3-11-20.3-26.2 0-14.9 1.8-27.9 20.3-27.9 5.5 0 10.3 0.4 14.2 4.5v-1.1c0-1.6 1.3-3 3-3h9c1.7 0.2 3.1 1.6 3.1 3.2zm-14.8 19.5c0-3.7-0.5-7.6-3.4-9.6-3.5-2.4-12.9-2.1-14.9 1-2.3 3.6-1.8 11.2-1.8 15.9 0 2.6 0 7.1 1.4 9.1 2.3 3.5 8.8 3.1 12.3 2.4 5.2-1 5.9-3.7 6.3-8.3l0.1-10.5z" fill="#2D3848" clip-rule="evenodd" fill-rule="evenodd"/>
</svg>
