<svg id="Layer_1" xmlns="http://www.w3.org/2000/svg" xml:space="preserve" viewBox="0 0 96 96" version="1.1" y="0px" x="0px" xmlns:xlink="http://www.w3.org/1999/xlink" enable-background="new 0 0 96 96">
<g id="XMLID_124_">
	<path id="XMLID_428_" d="m73.1 22.2c0 3.3 0.5 4.2-1.4 5.2-5.8 3.2-13.9 1.4-13.9-6.7 0-11.2 14.8-9.3 14.8-4 0 1.4-2 1.9-2.8 0.8-1-1.5-1.5-2.5-3.9-2.5-5.6 0-5.7 7.4-3.5 9.9 2 2.3 5.3 1.7 7.7 0.4v-2.6c-2 0-4.3 0.4-4.3-1.2 0-0.7 0.6-1.2 1.4-1.2 3.6 0 5.9-0.6 5.9 1.9zm-26.4 0.2h4.8l-2.4-6.5-2.4 6.5zm6.5 4.4l-0.8-2h-6.5c-0.8 2.2-1.2 4.1-2.6 4.1-0.9 0-1.9-0.9-1.4-2.1l5.4-13.4c0.7-1 3.1-1.7 4.2 0.9 0.8 1.9 5.1 12.2 5.1 13.2 0 1.1-2.1 2.6-3.1 0.3-0.1-0.4-0.3-0.7-0.3-1zm-26.1-10.7v11c0 2.5-3 2.5-3 0v-12.6c0-1.9 1.4-1.8 3-1.8 1.8 0 1.9 0.4 2.3 2.1l2.3 8.7 2.7-10.1c0.6-1.2 3.9-0.7 4.4-0.4 0.4 0.3 0.6 0.7 0.6 1.4v12.5c0 2.5-3 2.5-3 0v-11l-3 11.6c-0.5 1.5-3 1.9-3.7-0.5-0.7-3.5-1.6-7.2-2.6-10.9z" fill="#2D3848"/>
	<path id="XMLID_386_" d="m42.4 56.6c-1.9-2.6-2.7-5.3-2.7-8.5 0-6.7-1.2-12.1 8.7-12.1s8.7 5.4 8.7 12.1c0 9-8.3 17.1-14.7 8.5zm25.1 2.3c1.2-1.7 1.7-3.4 1.7-5.5 0-4.3 0.7-7.9-5.6-7.9-6.4 0-5.7 3.8-5.7 8.3 0.1 4.8 5.3 11 9.6 5.1zm-8.7-5l0.5-2.6c0-0.5 0-1 0.3-1.4 0.2-0.7 8.1-0.7 8.2 0 0.6 1.6 0.1 1.3 0.4 2.8l0.3 1.3c0.2 1.9-2 6.7-4.9 6.7-2.9-0.2-4.8-4.5-4.8-6.8zm-21.7 5c1.2-1.7 1.7-3.4 1.7-5.5 0-4.4 0.7-7.9-5.7-7.9-7.5 0-5.2 5.8-5.6 8.3 0 1.8 0.7 3.7 1.7 5.1 2.5 3.2 5.5 3.2 7.9 0zm-8.8-5l0.5-2.6c0-0.5 0-1 0.3-1.4 0.2-0.7 8.1-0.7 8.1 0 0.6 1.6 0.1 1.4 0.5 2.8l0.3 1.3c0.2 2-2.1 6.7-4.8 6.7-2.9-0.2-4.8-4.5-4.9-6.8zm20.9 14c-0.3 0.5 0.6 9.4 0.7 10.7 2.6-5.4 4.1-8.9 5.7-15.3 2.9 0.6 5.3 1.6 7 3-5 1.3-8.7 5.8-8.7 11.2v6.9h-18.7c-1.8 0-3.2-1.4-3.2-3.2v-10.7c0-3.7 4-6.1 9.1-7.3 1.6 6.5 3.2 10 5.8 15.5l0.9-10.4c0.1-0.7-1.9-2.8-0.8-2.8 4 0.1 3.7-0.3 2.2 2.4zm24.4-1.9c-1.8-3.1-8.8-4.1-14.1-3.1 1.8 0.7 3.6 1.7 4.9 3.2l9.2-0.1zm-50.9 8.4c0 1 0.8 1.7 1.7 1.7h6c0-2.1-0.2-6.2 0.4-7.9 1-2.7 3.7-4.4 6.4-5.4-6.1-1.2-14.5 0.4-14.5 4.7v6.9zm20.7-18.5c6.6 8.8 13-2.9 12.5-7-0.1-1.1-0.6-1.5-0.7-4-0.1-5-3.3-1.9-6.8-1.9-3.4 0-6.6-3.1-6.8 2-0.1 2.4-0.6 2.9-0.7 4 0 2.3 1 4.9 2.5 6.9z" fill="#2D3848" clip-rule="evenodd" fill-rule="evenodd"/>
	<path id="XMLID_193_" d="m56.1 77.5v11.2h-34.6c-1.3 0-2.4-1-2.4-2.4v-76.6c0-1.3 1.1-2.4 2.4-2.4h52.9c1.3 0 2.4 1.1 2.4 2.4v58.4h-11.2c-5.3 0-9.5 4.2-9.5 9.4zm22.1-77.5h-60.4c-3.3 0.1-6 2.8-6 6.1v83.7c0 3.4 2.8 6.1 6.2 6.1h40.9l25.3-25.1v-64.8c0-3.2-2.7-5.9-6-6z" fill="#343B4B" clip-rule="evenodd" fill-rule="evenodd"/>
</g>
</svg>
